<svg id="visual" viewBox="0 0 900 600" width="900" height="600" xmlns="http://www.w3.org/2000/svg" xmlns:xlink="http://www.w3.org/1999/xlink" version="1.1"><g transform="translate(461.0992856073299 309.5850717720064)"><path d="M147.3 -170.6C188.3 -141.1 217.3 -92.3 212.4 -48.1C207.4 -3.9 168.7 35.5 140.5 78.2C112.4 120.8 94.8 166.6 63.1 181.8C31.4 197 -14.6 181.7 -70.8 171.3C-127 160.9 -193.4 155.4 -220.1 121.2C-246.7 87 -233.7 24.1 -214.3 -29.4C-194.8 -82.9 -169.1 -126.9 -132.3 -157C-95.6 -187.2 -47.8 -203.6 2.7 -206.8C53.1 -210 106.3 -200 147.3 -170.6" fill="#006091"></path></g></svg>