<svg idß="visual" viewBox="0 0 100vh 900" width="1600" height="900" xmlns="http://www.w3.org/2000/svg" xmlns:xlink="http://www.w3.org/1999/xlink" version="1.1"><rect x="0" y="0" width="1600" height="900" fill="transparent"></rect><g transform="translate(852.869290619011 393.53421907090274)"><path d="M195 -210.1C267.9 -171.2 352.6 -124.2 362.6 -64.3C372.7 -4.5 308.1 68.1 254.4 133.4C200.6 198.7 157.6 256.7 90 307.5C22.3 358.3 -69.9 401.9 -170.2 396.3C-270.5 390.7 -378.8 336 -431.2 247.7C-483.6 159.5 -480.1 37.7 -432.8 -49.5C-385.5 -136.7 -294.3 -189.4 -214.9 -227.1C-135.4 -264.7 -67.7 -287.4 -3.3 -283.4C61.1 -279.4 122.1 -248.9 195 -210.1" fill="#ff0066"></path></g></svg>